HIERARCHY
ROOT Hips
{
  OFFSET 62.8374 77.8899 -6.86969
  CHANNELS 6 Xposition Yposition Zposition Zrotation Xrotation Yrotation
  JOINT spine
  {
    OFFSET 0 6.3926 0.367606
    CHANNELS 3 Zrotation Xrotation Yrotation
    JOINT spine1
    {
      OFFSET 0 9.17611 0
      CHANNELS 3 Zrotation Xrotation Yrotation
      JOINT spine2
      {
        OFFSET 0 8.79238 0
        CHANNELS 3 Zrotation Xrotation Yrotation
        JOINT Neck
        {
          OFFSET 0 22.5737 1.07624
          CHANNELS 3 Zrotation Xrotation Yrotation
          JOINT Head
          {
            OFFSET 0 6.82011 0
            CHANNELS 3 Zrotation Xrotation Yrotation
            End Site
            {
              OFFSET 0 16.5085 -5.44427
            }
          }
        }
        JOINT RightShoulder
        {
          OFFSET -3.70221 9.49509 -0.515508
          CHANNELS 3 Zrotation Xrotation Yrotation
          JOINT RightArm
          {
            OFFSET 0 12.4537 0
            CHANNELS 3 Zrotation Xrotation Yrotation
            JOINT RightArmRoll
            {
              OFFSET 0 6.28686 0
              CHANNELS 3 Zrotation Xrotation Yrotation
              JOINT RightForeArm
              {
                OFFSET 0 18.3114 0
                CHANNELS 3 Zrotation Xrotation Yrotation
                JOINT RightForeArmRoll
                {
                  OFFSET 0 7.05482 0
                  CHANNELS 3 Zrotation Xrotation Yrotation
                  JOINT RightHand
                  {
                    OFFSET 0 14.1575 0
                    CHANNELS 3 Zrotation Xrotation Yrotation
                    End Site
                    {
                      OFFSET 0 0 0
                    }
                  }
                }
              }
            }
          }
        }
        JOINT LeftShoulder
        {
          OFFSET 3.70221 9.49509 -0.515508
          CHANNELS 3 Zrotation Xrotation Yrotation
          JOINT LeftArm
          {
            OFFSET 0 12.4537 0
            CHANNELS 3 Zrotation Xrotation Yrotation
            JOINT LeftArmRoll
            {
              OFFSET 0 6.28685 0
              CHANNELS 3 Zrotation Xrotation Yrotation
              JOINT LeftForeArm
              {
                OFFSET 0 18.3114 0
                CHANNELS 3 Zrotation Xrotation Yrotation
                JOINT LeftForeArmRoll
                {
                  OFFSET 0 7.05482 0
                  CHANNELS 3 Zrotation Xrotation Yrotation
                  JOINT LeftHand
                  {
                    OFFSET 0 14.1575 0
                    CHANNELS 3 Zrotation Xrotation Yrotation
                    End Site
                    {
                      OFFSET 0 0 0
                    }
                  }
                }
              }
            }
          }
        }
      }
    }
  }
  JOINT RightUpLeg
  {
    OFFSET -5.66615 -1.03903 -0.87161
    CHANNELS 3 Zrotation Xrotation Yrotation
    JOINT RightUpLegRoll
    {
      OFFSET 0 16.6005 0
      CHANNELS 3 Zrotation Xrotation Yrotation
      JOINT RightLeg
      {
        OFFSET 0 -20.5572 0
        CHANNELS 3 Zrotation Xrotation Yrotation
        JOINT RightLegRoll
        {
          OFFSET 0 20.6244 0
          CHANNELS 3 Zrotation Xrotation Yrotation
          JOINT RightFoot
          {
            OFFSET 0 17.1664 0
            CHANNELS 3 Zrotation Xrotation Yrotation
            JOINT RightToeBase
            {
              OFFSET 0 14.3502 0
              CHANNELS 3 Zrotation Xrotation Yrotation
              End Site
              {
                OFFSET 0.00608252 6.94971 -0.801061
              }
            }
          }
        }
      }
    }
  }
  JOINT LeftUpLeg
  {
    OFFSET 5.66615 -1.03903 -0.87161
    CHANNELS 3 Zrotation Xrotation Yrotation
    JOINT LeftUpLegRoll
    {
      OFFSET 0 16.6006 0
      CHANNELS 3 Zrotation Xrotation Yrotation
      JOINT LeftLeg
      {
        OFFSET 0 20.5571 0
        CHANNELS 3 Zrotation Xrotation Yrotation
        JOINT LeftLegRoll
        {
          OFFSET 0 20.8151 0
          CHANNELS 3 Zrotation Xrotation Yrotation
          JOINT LeftFoot
          {
            OFFSET 0 16.9757 0
            CHANNELS 3 Zrotation Xrotation Yrotation
            JOINT LeftToeBase
            {
              OFFSET 0 14.3502 0
              CHANNELS 3 Zrotation Xrotation Yrotation
              End Site
              {
                OFFSET -0.0272592 6.9497 -0.801061
              }
            }
          }
        }
      }
    }
  }
}
MOTION
Frames: 4
Frame Time: 0.00208333
56.1349 85.615 5.2201 -1.25151 -2.58612 0.26598 -0.430081 -1.30709 -0.131758 -0.856374 1.38927 -0.204615 -0.854556 3.03424 -0.190368 8.55015 10.1656 -1.90558 -5.32531 10.2324 0.654205 64.2769 -6.60186 -4.32839 109.219 18.5931 -1.49575 -7.30611e-006 2.22249e-006 -6.39907e-006 16.7567 5.91868 -0.944704 -2.09605e-005 -4.36239e-006 -3.00123 8.02909 -4.95142 0.6977 -50.1402 -2.36219 0.551737 -117.721 15.9545 3.68129 1.19272e-006 3.86199e-006 2.91767e-006 -10.5278 4.57473 0.95473 2.99211e-007 -4.8246e-007 3 -8.02892 -4.95145 -0.697697 179.967 -1.53349 -0.827584 180 7.01568e-015 179.017 176.205 5.94749 179.79 -3.03243e-007 -1.62171e-006 0.0540492 -18.0204 67.3882 19.0421 8.17841 25.8447 -3.95525 -177.46 -0.920367 1.8647 4.54188e-006 -4.6773e-006 -1.07881 -1.02981 -8.33748 0.470347 -4.15996e-007 -3.04926e-006 -0.158269 20.0461 69.7426 -21.0903 -8.14057 25.3283 3.34176 
56.1289 85.6135 5.20698 -1.24909 -2.57868 0.268082 -0.430222 -1.30674 -0.130774 -0.857027 1.38997 -0.203593 -0.855222 3.03493 -0.189291 8.56032 10.1591 -1.90912 -5.33611 10.2326 0.653241 64.2801 -6.59792 -4.3263 109.214 18.5924 -1.498 -7.30611e-006 2.22249e-006 -6.39907e-006 16.7588 5.92294 -0.945202 -2.09605e-005 -4.36239e-006 -3.00123 8.02909 -4.95142 0.6977 -50.1377 -2.35312 0.54482 -117.72 15.9457 3.68122 1.19272e-006 3.86199e-006 2.91767e-006 -10.5306 4.58682 0.956465 2.99211e-007 -4.8246e-007 3 -8.02892 -4.95145 -0.697697 179.964 -1.52711 -0.826248 180 7.01568e-015 179.017 176.203 5.94266 179.79 -3.03243e-007 -1.62171e-006 0.0540531 -18.0263 67.3884 19.0421 8.17824 25.8423 -3.95378 -177.464 -0.908844 1.86733 4.54188e-006 -4.6773e-006 -1.07861 -1.03079 -8.3439 0.47009 -4.15996e-007 -3.04926e-006 -0.158269 20.049 69.7455 -21.0936 -8.14058 25.3284 3.34254 
56.1341 85.6118 5.20851 -1.24649 -2.57152 0.270178 -0.430378 -1.3064 -0.129698 -0.85772 1.39064 -0.202439 -0.855931 3.0356 -0.188062 8.57081 10.1527 -1.91289 -5.34766 10.2333 0.65217 64.2833 -6.59429 -4.32439 109.209 18.5913 -1.50028 -7.30611e-006 2.22249e-006 -6.39907e-006 16.761 5.92726 -0.94569 -2.09605e-005 -4.36239e-006 -3.00123 8.02909 -4.95142 0.6977 -50.1354 -2.34302 0.537169 -117.719 15.9362 3.68068 1.19272e-006 3.86199e-006 2.91767e-006 -10.5336 4.59942 0.958288 2.99211e-007 -4.8246e-007 3 -8.02892 -4.95145 -0.697697 179.961 -1.52116 -0.824728 180 7.01568e-015 179.017 176.202 5.9378 179.79 -3.03243e-007 -1.62171e-006 0.0540562 -18.0322 67.3886 19.0421 8.17807 25.8399 -3.95235 -177.468 -0.897705 1.87019 4.54188e-006 -4.6773e-006 -1.07842 -1.03161 -8.35031 0.469857 -4.15996e-007 -3.04926e-006 -0.158269 20.0519 69.7484 -21.0968 -8.14059 25.3286 3.3433 
56.13 85.6118 5.2107 -1.24378 -2.56457 0.272269 -0.430542 -1.30607 -0.128557 -0.858442 1.39128 -0.201192 -0.856668 3.03625 -0.186724 8.58152 10.1465 -1.91683 -5.35974 10.2343 0.651024 64.2866 -6.59088 -4.3226 109.204 18.59 -1.50259 -7.30611e-006 2.22249e-006 -6.39907e-006 16.7634 5.93163 -0.94617 -2.09605e-005 -4.36239e-006 -3.00123 8.02909 -4.95142 0.6977 -50.1332 -2.3322 0.529002 -117.717 15.9263 3.6798 1.19272e-006 3.86199e-006 2.91767e-006 -10.5366 4.61239 0.960172 2.99211e-007 -4.8246e-007 3 -8.02892 -4.95145 -0.697697 179.957 -1.51553 -0.823078 180 7.01568e-015 179.017 176.2 5.93281 179.79 -3.03243e-007 -1.62171e-006 0.0540588 -18.0381 67.3889 19.0421 8.1779 25.8375 -3.95095 -177.472 -0.886837 1.87321 4.54188e-006 -4.6773e-006 -1.07824 -1.03232 -8.35672 0.469641 -4.15996e-007 -3.04926e-006 -0.158269 20.0547 69.7512 -21.1 -8.1406 25.3288 3.34402 
